<?xml version="1.0" encoding="UTF-8"?>
<svg width="120" height="60" viewBox="0 0 120 60" fill="none" xmlns="http://www.w3.org/2000/svg">
  <path d="M30 10L50 30L30 50L10 30L30 10Z" fill="#FF6F00"/>
  <path d="M30 15L45 30L30 45L15 30L30 15Z" fill="#FFFFFF"/>
  <path d="M30 20L40 30L30 40L20 30L30 20Z" fill="#FF6F00"/>
  <path d="M30 25L35 30L30 35L25 30L30 25Z" fill="#FFFFFF"/>
  <path d="M60 20H65C67.7614 20 70 22.2386 70 25V25C70 27.7614 67.7614 30 65 30H60V20Z" fill="#FF6F00"/>
  <path d="M60 30H65C67.7614 30 70 32.2386 70 35V35C70 37.7614 67.7614 40 65 40H60V30Z" fill="#FF6F00"/>
  <path d="M75 20H80C82.7614 20 85 22.2386 85 25V35C85 37.7614 82.7614 40 80 40H75V20Z" fill="#FF6F00"/>
  <path d="M90 20V40H95C97.7614 40 100 37.7614 100 35V25C100 22.2386 97.7614 20 95 20H90Z" fill="#FF6F00"/>
</svg>
